<?xml version="1.0" encoding="UTF-8" standalone="no"?><!-- Generator: Gravitdesign.com --><svg xmlns="http://www.w3.org/2000/svg" xmlns:xlink="http://www.w3.org/1999/xlink" style="isolation:isolate" viewBox="0 0 313 313" width="313pt" height="313pt"><defs><clipPath id="_clipPath_Wc3fTiIM5eOTct98mj1fFkjXl4hwJoBY"><rect width="313" height="313"/></clipPath></defs><g clip-path="url(#_clipPath_Wc3fTiIM5eOTct98mj1fFkjXl4hwJoBY)"><rect width="313" height="313" style="fill:rgb(0,0,0)" fill-opacity="0"/><path d=" M 155 58 Q 107.333 154 116 232 Q 96 139.333 155 27 Q 212 128.667 195 232 Q 200.667 142 155 58 Z " fill="rgb(255,255,255)" vector-effect="non-scaling-stroke" stroke-width="1" stroke="rgb(0,0,0)" stroke-linejoin="miter" stroke-linecap="square" stroke-miterlimit="3"/><path d=" M 67 39 Q 46 100.667 155 174 Q 264.667 100.667 245 39 Q 290.667 115.333 155 197 Q 15.333 115.333 67 39 Z " fill="rgb(255,255,255)" vector-effect="non-scaling-stroke" stroke-width="1" stroke="rgb(0,0,0)" stroke-linejoin="miter" stroke-linecap="square" stroke-miterlimit="3"/><path d=" M 67 157 Q 88 163 91 195 Q 88.5 236.5 91 241 Q 100 270.5 122 283 Q 64.5 277.5 36 218 Q 64.5 239 71 228 Q 80 218 67 157 Z " fill="rgb(255,255,255)" vector-effect="non-scaling-stroke" stroke-width="1" stroke="rgb(0,0,0)" stroke-linejoin="miter" stroke-linecap="square" stroke-miterlimit="3"/><path d=" M 243 157 Q 222 163 219 195 Q 221.5 236.5 219 241 Q 210 270.5 188 283 Q 245.5 277.5 274 218 Q 245.5 239 239 228 Q 230 218 243 157 Z " fill="rgb(255,255,255)" vector-effect="non-scaling-stroke" stroke-width="1" stroke="rgb(0,0,0)" stroke-linejoin="miter" stroke-linecap="square" stroke-miterlimit="3"/><path d=" M 102 246 Q 153 278.5 207 248 Q 199.875 267.25 180 278 Q 153.75 283.75 129 278 Q 102.75 261 102 246 Z " fill="rgb(255,255,255)" vector-effect="non-scaling-stroke" stroke-width="1" stroke="rgb(0,0,0)" stroke-linejoin="miter" stroke-linecap="square" stroke-miterlimit="3"/><path d=" M 259 109 Q 255.25 119.25 248 129 Q 262.75 165.75 245 207 Q 243.828 215.234 247 223 Q 255.906 221.906 260 216 Q 286.333 164 259 109 Z " fill="rgb(255,255,255)" vector-effect="non-scaling-stroke" stroke-width="1" stroke="rgb(0,0,0)" stroke-linejoin="miter" stroke-linecap="square" stroke-miterlimit="3"/><path d=" M 51.605 109 Q 55.355 119.25 62.605 129 Q 47.855 165.75 65.605 207 Q 66.777 215.234 63.605 223 Q 54.699 221.906 50.605 216 Q 24.272 164 51.605 109 Z " fill="rgb(255,255,255)" vector-effect="non-scaling-stroke" stroke-width="1" stroke="rgb(0,0,0)" stroke-linejoin="miter" stroke-linecap="square" stroke-miterlimit="3"/><path d=" M 67 157 Q 88 163 91 195 Q 88.5 236.5 91 241 Q 100 270.5 122 283 Q 64.5 277.5 36 218 Q 64.5 239 71 228 Q 80 218 67 157 Z " fill="rgb(255,255,255)" vector-effect="non-scaling-stroke" stroke-width="1" stroke="rgb(0,0,0)" stroke-linejoin="miter" stroke-linecap="square" stroke-miterlimit="3"/><path d=" M 136 48 Q 128.75 60.25 127 68 Q 103.75 72 82 95 Q 76.75 90.25 74 79 Q 101.25 50.5 136 48 Z " fill="rgb(255,255,255)" vector-effect="non-scaling-stroke" stroke-width="1" stroke="rgb(0,0,0)" stroke-linejoin="miter" stroke-linecap="square" stroke-miterlimit="3"/><path d=" M 174 48 Q 181.25 60.25 183 68 Q 206.25 72 228 95 Q 233.25 90.25 236 79 Q 208.75 50.5 174 48 Z " fill="rgb(255,255,255)" vector-effect="non-scaling-stroke" stroke-width="1" stroke="rgb(0,0,0)" stroke-linejoin="miter" stroke-linecap="square" stroke-miterlimit="3"/></g></svg>